<?xml version="1.0" encoding="utf-8"?>
<!-- Generator: Adobe Illustrator 19.1.0, SVG Export Plug-In . SVG Version: 6.00 Build 0)  -->
<svg version="1.2" baseProfile="tiny" id="Layer_1" xmlns="http://www.w3.org/2000/svg" xmlns:xlink="http://www.w3.org/1999/xlink"
	 x="0px" y="0px" viewBox="0 0 117.7 28.3" xml:space="preserve">
<path fill="#333333" d="M6.7,5.3c4.4,0,6.9,2.2,6.9,6c0,3.9-2.5,6.2-6.9,6.2H2v5.6H0V5.3H6.7z M2,15.5h4.6c3.2,0,5-1.4,5-4.2
	c0-2.7-1.9-4.1-5-4.1H2V15.5z"/>
<path fill="#333333" d="M28.3,23.1h-2v-3c-0.9,2.1-2.7,3.1-5.1,3.1c-3.1,0-5-2-5-5.2V9.7h2v7.7c0,2.4,1.4,3.8,3.7,3.8
	c2.8-0.1,4.4-2.1,4.4-4.9V9.7h2V23.1z"/>
<path fill="#333333" d="M33.4,12.7c0.9-2,2.5-3,4.8-3v2c-2.8-0.1-4.6,1.7-4.8,4.3v7.1h-2V9.7h2V12.7z"/>
<path fill="#333333" d="M51.7,17.1H40.8c0.4,2.6,2.3,4.3,4.8,4.3c1.6,0,3.1-0.6,4.1-1.7l1.1,1.2c-1.3,1.4-3.1,2.2-5.4,2.2
	c-3.9,0-6.6-2.8-6.6-6.7s2.7-6.7,6.6-6.7C49.8,9.6,51.9,12.6,51.7,17.1z M49.9,15.5c-0.1-2.6-1.9-4.2-4.5-4.2
	c-2.5,0-4.4,1.6-4.7,4.2H49.9z"/>
<path fill="#333333" d="M93.6,11.4c-2.8,0-4.8,2.1-4.8,5c0,2.9,2,5,4.8,5c2.8,0,4.8-2.1,4.8-5C98.3,13.5,96.3,11.4,93.6,11.4z"/>
<path fill="#333333" d="M108.8,11.3c-2.5,0-4.4,1.6-4.7,4.2h9.1C113.2,13,111.4,11.3,108.8,11.3z"/>
<path fill="#333333" d="M54.4,0v28.3h63.4V0H54.4z M70.6,7.2h-5.8v15.8h-2V7.2H57v-2h13.6V7.2z M83.6,23.1h-2v-3
	c-0.9,2.1-2.7,3.1-5.1,3.1c-3.1,0-5-2-5-5.2V9.7h2v7.7c0,2.4,1.4,3.8,3.7,3.8c2.8-0.1,4.4-2.1,4.4-4.9V9.7h2V23.1z M94,23.1
	c-2.4,0-4.2-1.1-5.2-2.9v2.9h-2V4.2h2v8.3c1-1.9,2.8-3,5.1-3c3.8,0,6.4,2.8,6.4,6.8C100.3,20.4,97.7,23.1,94,23.1z M109,21.4
	c1.6,0,3.1-0.6,4.1-1.7l1.1,1.2c-1.3,1.4-3.1,2.2-5.4,2.2c-3.9,0-6.6-2.8-6.6-6.7s2.7-6.7,6.6-6.7c4.3,0,6.4,3,6.2,7.5h-10.9
	C104.5,19.8,106.4,21.4,109,21.4z"/>
</svg>
